<svg width="1200" height="137" viewBox="0 0 1200 137" fill="none" xmlns="http://www.w3.org/2000/svg">
<rect x="1" y="48" width="1198" height="13" fill="#FFFB99" stroke="black" stroke-width="2"/>
<path d="M31 18H45V136H31V18Z" fill="#E9EAB5"/>
<path d="M38 1L44.9282 18.25H31.0718L38 1Z" fill="#E9EAB5"/>
<line x1="38.4348" y1="1.19904" x2="31.4825" y2="17.2198" stroke="black"/>
<line x1="31.5" y1="17.0104" x2="31.5" y2="136.01" stroke="black"/>
<line x1="31" y1="135.51" x2="45" y2="135.51" stroke="black"/>
<line x1="44.5" y1="136.01" x2="44.5" y2="17.0104" stroke="black"/>
<line x1="44.5645" y1="17.1855" x2="38.5361" y2="2.19692" stroke="black"/>
<g clip-path="url(#clip0_1_396)">
<path d="M31 18H45V136H31V18Z" fill="#E9EAB5"/>
<path d="M38 1L44.9282 18.25H31.0718L38 1Z" fill="#E9EAB5"/>
<path d="M38.4348 1.19904L31.4825 17.2198" stroke="black"/>
<path d="M31.5 17.0104V136.01" stroke="black"/>
<path d="M31 135.51H45" stroke="black"/>
<path d="M44.5 136.01V17.0104" stroke="black"/>
<path d="M44.5645 17.1855L38.5361 2.19693" stroke="black"/>
</g>
<g clip-path="url(#clip1_1_396)">
<path d="M31 18H45V136H31V18Z" fill="#E9EAB5"/>
<path d="M38 1L44.9282 18.25H31.0718L38 1Z" fill="#E9EAB5"/>
<path d="M38.4348 1.19904L31.4825 17.2198" stroke="black"/>
<path d="M31.5 17.0104V136.01" stroke="black"/>
<path d="M31 135.51H45" stroke="black"/>
<path d="M44.5 136.01V17.0104" stroke="black"/>
<path d="M44.5645 17.1855L38.5361 2.19693" stroke="black"/>
</g>
<g clip-path="url(#clip2_1_396)">
<path d="M76 18H90V136H76V18Z" fill="#E9EAB5"/>
<path d="M83 1L89.9282 18.25H76.0718L83 1Z" fill="#E9EAB5"/>
<path d="M83.4348 1.19904L76.4825 17.2198" stroke="black"/>
<path d="M76.5 17.0104V136.01" stroke="black"/>
<path d="M76 135.51H90" stroke="black"/>
<path d="M89.5 136.01V17.0104" stroke="black"/>
<path d="M89.5645 17.1855L83.5361 2.19693" stroke="black"/>
</g>
<g clip-path="url(#clip3_1_396)">
<path d="M122 18H136V136H122V18Z" fill="#E9EAB5"/>
<path d="M129 1L135.928 18.25H122.072L129 1Z" fill="#E9EAB5"/>
<path d="M129.435 1.19904L122.482 17.2198" stroke="black"/>
<path d="M122.5 17.0104V136.01" stroke="black"/>
<path d="M122 135.51H136" stroke="black"/>
<path d="M135.5 136.01V17.0104" stroke="black"/>
<path d="M135.564 17.1855L129.536 2.19693" stroke="black"/>
</g>
<path d="M305 18H319V136H305V18Z" fill="#E9EAB5"/>
<path d="M312 1L318.928 18.25H305.072L312 1Z" fill="#E9EAB5"/>
<line x1="312.435" y1="1.19904" x2="305.482" y2="17.2198" stroke="black"/>
<line x1="305.5" y1="17.0104" x2="305.5" y2="136.01" stroke="black"/>
<line x1="305" y1="135.51" x2="319" y2="135.51" stroke="black"/>
<line x1="318.5" y1="136.01" x2="318.5" y2="17.0104" stroke="black"/>
<line x1="318.564" y1="17.1855" x2="312.536" y2="2.19692" stroke="black"/>
<g clip-path="url(#clip4_1_396)">
<path d="M305 18H319V136H305V18Z" fill="#E9EAB5"/>
<path d="M312 1L318.928 18.25H305.072L312 1Z" fill="#E9EAB5"/>
<path d="M312.435 1.19904L305.482 17.2198" stroke="black"/>
<path d="M305.5 17.0104V136.01" stroke="black"/>
<path d="M305 135.51H319" stroke="black"/>
<path d="M318.5 136.01V17.0104" stroke="black"/>
<path d="M318.565 17.1855L312.536 2.19693" stroke="black"/>
</g>
<g clip-path="url(#clip5_1_396)">
<path d="M305 18H319V136H305V18Z" fill="#E9EAB5"/>
<path d="M312 1L318.928 18.25H305.072L312 1Z" fill="#E9EAB5"/>
<path d="M312.435 1.19904L305.482 17.2198" stroke="black"/>
<path d="M305.5 17.0104V136.01" stroke="black"/>
<path d="M305 135.51H319" stroke="black"/>
<path d="M318.5 136.01V17.0104" stroke="black"/>
<path d="M318.565 17.1855L312.536 2.19693" stroke="black"/>
</g>
<g clip-path="url(#clip6_1_396)">
<path d="M350 18H364V136H350V18Z" fill="#E9EAB5"/>
<path d="M357 1L363.928 18.25H350.072L357 1Z" fill="#E9EAB5"/>
<path d="M357.435 1.19904L350.482 17.2198" stroke="black"/>
<path d="M350.5 17.0104V136.01" stroke="black"/>
<path d="M350 135.51H364" stroke="black"/>
<path d="M363.5 136.01V17.0104" stroke="black"/>
<path d="M363.565 17.1855L357.536 2.19693" stroke="black"/>
</g>
<g clip-path="url(#clip7_1_396)">
<path d="M396 18H410V136H396V18Z" fill="#E9EAB5"/>
<path d="M403 1L409.928 18.25H396.072L403 1Z" fill="#E9EAB5"/>
<path d="M403.435 1.19904L396.482 17.2198" stroke="black"/>
<path d="M396.5 17.0104V136.01" stroke="black"/>
<path d="M396 135.51H410" stroke="black"/>
<path d="M409.5 136.01V17.0104" stroke="black"/>
<path d="M409.565 17.1855L403.536 2.19693" stroke="black"/>
</g>
<path d="M442 18H456V136H442V18Z" fill="#E9EAB5"/>
<path d="M449 1L455.928 18.25H442.072L449 1Z" fill="#E9EAB5"/>
<line x1="449.435" y1="1.19904" x2="442.482" y2="17.2198" stroke="black"/>
<line x1="442.5" y1="17.0104" x2="442.5" y2="136.01" stroke="black"/>
<line x1="442" y1="135.51" x2="456" y2="135.51" stroke="black"/>
<line x1="455.5" y1="136.01" x2="455.5" y2="17.0104" stroke="black"/>
<line x1="455.564" y1="17.1855" x2="449.536" y2="2.19692" stroke="black"/>
<g clip-path="url(#clip8_1_396)">
<path d="M442 18H456V136H442V18Z" fill="#E9EAB5"/>
<path d="M449 1L455.928 18.25H442.072L449 1Z" fill="#E9EAB5"/>
<path d="M449.435 1.19904L442.482 17.2198" stroke="black"/>
<path d="M442.5 17.0104V136.01" stroke="black"/>
<path d="M442 135.51H456" stroke="black"/>
<path d="M455.5 136.01V17.0104" stroke="black"/>
<path d="M455.565 17.1855L449.536 2.19693" stroke="black"/>
</g>
<g clip-path="url(#clip9_1_396)">
<path d="M442 18H456V136H442V18Z" fill="#E9EAB5"/>
<path d="M449 1L455.928 18.25H442.072L449 1Z" fill="#E9EAB5"/>
<path d="M449.435 1.19904L442.482 17.2198" stroke="black"/>
<path d="M442.5 17.0104V136.01" stroke="black"/>
<path d="M442 135.51H456" stroke="black"/>
<path d="M455.5 136.01V17.0104" stroke="black"/>
<path d="M455.565 17.1855L449.536 2.19693" stroke="black"/>
</g>
<g clip-path="url(#clip10_1_396)">
<path d="M487 18H501V136H487V18Z" fill="#E9EAB5"/>
<path d="M494 1L500.928 18.25H487.072L494 1Z" fill="#E9EAB5"/>
<path d="M494.435 1.19904L487.482 17.2198" stroke="black"/>
<path d="M487.5 17.0104V136.01" stroke="black"/>
<path d="M487 135.51H501" stroke="black"/>
<path d="M500.5 136.01V17.0104" stroke="black"/>
<path d="M500.565 17.1855L494.536 2.19693" stroke="black"/>
</g>
<g clip-path="url(#clip11_1_396)">
<path d="M533 18H547V136H533V18Z" fill="#E9EAB5"/>
<path d="M540 1L546.928 18.25H533.072L540 1Z" fill="#E9EAB5"/>
<path d="M540.435 1.19904L533.482 17.2198" stroke="black"/>
<path d="M533.5 17.0104V136.01" stroke="black"/>
<path d="M533 135.51H547" stroke="black"/>
<path d="M546.5 136.01V17.0104" stroke="black"/>
<path d="M546.565 17.1855L540.536 2.19693" stroke="black"/>
</g>
<path d="M579 18H593V136H579V18Z" fill="#E9EAB5"/>
<path d="M586 1L592.928 18.25H579.072L586 1Z" fill="#E9EAB5"/>
<line x1="586.435" y1="1.19904" x2="579.482" y2="17.2198" stroke="black"/>
<line x1="579.5" y1="17.0104" x2="579.5" y2="136.01" stroke="black"/>
<line x1="579" y1="135.51" x2="593" y2="135.51" stroke="black"/>
<line x1="592.5" y1="136.01" x2="592.5" y2="17.0104" stroke="black"/>
<line x1="592.564" y1="17.1855" x2="586.536" y2="2.19692" stroke="black"/>
<g clip-path="url(#clip12_1_396)">
<path d="M579 18H593V136H579V18Z" fill="#E9EAB5"/>
<path d="M586 1L592.928 18.25H579.072L586 1Z" fill="#E9EAB5"/>
<path d="M586.435 1.19904L579.482 17.2198" stroke="black"/>
<path d="M579.5 17.0104V136.01" stroke="black"/>
<path d="M579 135.51H593" stroke="black"/>
<path d="M592.5 136.01V17.0104" stroke="black"/>
<path d="M592.565 17.1855L586.536 2.19693" stroke="black"/>
</g>
<g clip-path="url(#clip13_1_396)">
<path d="M579 18H593V136H579V18Z" fill="#E9EAB5"/>
<path d="M586 1L592.928 18.25H579.072L586 1Z" fill="#E9EAB5"/>
<path d="M586.435 1.19904L579.482 17.2198" stroke="black"/>
<path d="M579.5 17.0104V136.01" stroke="black"/>
<path d="M579 135.51H593" stroke="black"/>
<path d="M592.5 136.01V17.0104" stroke="black"/>
<path d="M592.565 17.1855L586.536 2.19693" stroke="black"/>
</g>
<g clip-path="url(#clip14_1_396)">
<path d="M624 18H638V136H624V18Z" fill="#E9EAB5"/>
<path d="M631 1L637.928 18.25H624.072L631 1Z" fill="#E9EAB5"/>
<path d="M631.435 1.19904L624.482 17.2198" stroke="black"/>
<path d="M624.5 17.0104V136.01" stroke="black"/>
<path d="M624 135.51H638" stroke="black"/>
<path d="M637.5 136.01V17.0104" stroke="black"/>
<path d="M637.565 17.1855L631.536 2.19693" stroke="black"/>
</g>
<g clip-path="url(#clip15_1_396)">
<path d="M670 18H684V136H670V18Z" fill="#E9EAB5"/>
<path d="M677 1L683.928 18.25H670.072L677 1Z" fill="#E9EAB5"/>
<path d="M677.435 1.19904L670.482 17.2198" stroke="black"/>
<path d="M670.5 17.0104V136.01" stroke="black"/>
<path d="M670 135.51H684" stroke="black"/>
<path d="M683.5 136.01V17.0104" stroke="black"/>
<path d="M683.565 17.1855L677.536 2.19693" stroke="black"/>
</g>
<path d="M716 18H730V136H716V18Z" fill="#E9EAB5"/>
<path d="M723 1L729.928 18.25H716.072L723 1Z" fill="#E9EAB5"/>
<line x1="723.435" y1="1.19904" x2="716.482" y2="17.2198" stroke="black"/>
<line x1="716.5" y1="17.0104" x2="716.5" y2="136.01" stroke="black"/>
<line x1="716" y1="135.51" x2="730" y2="135.51" stroke="black"/>
<line x1="729.5" y1="136.01" x2="729.5" y2="17.0104" stroke="black"/>
<line x1="729.564" y1="17.1855" x2="723.536" y2="2.19692" stroke="black"/>
<g clip-path="url(#clip16_1_396)">
<path d="M716 18H730V136H716V18Z" fill="#E9EAB5"/>
<path d="M723 1L729.928 18.25H716.072L723 1Z" fill="#E9EAB5"/>
<path d="M723.435 1.19904L716.482 17.2198" stroke="black"/>
<path d="M716.5 17.0104V136.01" stroke="black"/>
<path d="M716 135.51H730" stroke="black"/>
<path d="M729.5 136.01V17.0104" stroke="black"/>
<path d="M729.565 17.1855L723.536 2.19693" stroke="black"/>
</g>
<g clip-path="url(#clip17_1_396)">
<path d="M716 18H730V136H716V18Z" fill="#E9EAB5"/>
<path d="M723 1L729.928 18.25H716.072L723 1Z" fill="#E9EAB5"/>
<path d="M723.435 1.19904L716.482 17.2198" stroke="black"/>
<path d="M716.5 17.0104V136.01" stroke="black"/>
<path d="M716 135.51H730" stroke="black"/>
<path d="M729.5 136.01V17.0104" stroke="black"/>
<path d="M729.565 17.1855L723.536 2.19693" stroke="black"/>
</g>
<g clip-path="url(#clip18_1_396)">
<path d="M761 18H775V136H761V18Z" fill="#E9EAB5"/>
<path d="M768 1L774.928 18.25H761.072L768 1Z" fill="#E9EAB5"/>
<path d="M768.435 1.19904L761.482 17.2198" stroke="black"/>
<path d="M761.5 17.0104V136.01" stroke="black"/>
<path d="M761 135.51H775" stroke="black"/>
<path d="M774.5 136.01V17.0104" stroke="black"/>
<path d="M774.565 17.1855L768.536 2.19693" stroke="black"/>
</g>
<g clip-path="url(#clip19_1_396)">
<path d="M807 18H821V136H807V18Z" fill="#E9EAB5"/>
<path d="M814 1L820.928 18.25H807.072L814 1Z" fill="#E9EAB5"/>
<path d="M814.435 1.19904L807.482 17.2198" stroke="black"/>
<path d="M807.5 17.0104V136.01" stroke="black"/>
<path d="M807 135.51H821" stroke="black"/>
<path d="M820.5 136.01V17.0104" stroke="black"/>
<path d="M820.564 17.1855L814.536 2.19693" stroke="black"/>
</g>
<path d="M853 18H867V136H853V18Z" fill="#E9EAB5"/>
<path d="M860 1L866.928 18.25H853.072L860 1Z" fill="#E9EAB5"/>
<line x1="860.435" y1="1.19904" x2="853.482" y2="17.2198" stroke="black"/>
<line x1="853.5" y1="17.0104" x2="853.5" y2="136.01" stroke="black"/>
<line x1="853" y1="135.51" x2="867" y2="135.51" stroke="black"/>
<line x1="866.5" y1="136.01" x2="866.5" y2="17.0104" stroke="black"/>
<line x1="866.564" y1="17.1855" x2="860.536" y2="2.19692" stroke="black"/>
<g clip-path="url(#clip20_1_396)">
<path d="M853 18H867V136H853V18Z" fill="#E9EAB5"/>
<path d="M860 1L866.928 18.25H853.072L860 1Z" fill="#E9EAB5"/>
<path d="M860.435 1.19904L853.482 17.2198" stroke="black"/>
<path d="M853.5 17.0104V136.01" stroke="black"/>
<path d="M853 135.51H867" stroke="black"/>
<path d="M866.5 136.01V17.0104" stroke="black"/>
<path d="M866.565 17.1855L860.536 2.19693" stroke="black"/>
</g>
<g clip-path="url(#clip21_1_396)">
<path d="M853 18H867V136H853V18Z" fill="#E9EAB5"/>
<path d="M860 1L866.928 18.25H853.072L860 1Z" fill="#E9EAB5"/>
<path d="M860.435 1.19904L853.482 17.2198" stroke="black"/>
<path d="M853.5 17.0104V136.01" stroke="black"/>
<path d="M853 135.51H867" stroke="black"/>
<path d="M866.5 136.01V17.0104" stroke="black"/>
<path d="M866.565 17.1855L860.536 2.19693" stroke="black"/>
</g>
<g clip-path="url(#clip22_1_396)">
<path d="M898 18H912V136H898V18Z" fill="#E9EAB5"/>
<path d="M905 1L911.928 18.25H898.072L905 1Z" fill="#E9EAB5"/>
<path d="M905.435 1.19904L898.482 17.2198" stroke="black"/>
<path d="M898.5 17.0104V136.01" stroke="black"/>
<path d="M898 135.51H912" stroke="black"/>
<path d="M911.5 136.01V17.0104" stroke="black"/>
<path d="M911.565 17.1855L905.536 2.19693" stroke="black"/>
</g>
<g clip-path="url(#clip23_1_396)">
<path d="M944 18H958V136H944V18Z" fill="#E9EAB5"/>
<path d="M951 1L957.928 18.25H944.072L951 1Z" fill="#E9EAB5"/>
<path d="M951.435 1.19904L944.482 17.2198" stroke="black"/>
<path d="M944.5 17.0104V136.01" stroke="black"/>
<path d="M944 135.51H958" stroke="black"/>
<path d="M957.5 136.01V17.0104" stroke="black"/>
<path d="M957.565 17.1855L951.536 2.19693" stroke="black"/>
</g>
<path d="M990 17H1004V135H990V17Z" fill="#E9EAB5"/>
<path d="M997 0L1003.93 17.25H990.072L997 0Z" fill="#E9EAB5"/>
<line x1="997.435" y1="0.199044" x2="990.482" y2="16.2198" stroke="black"/>
<line x1="990.5" y1="16.0104" x2="990.5" y2="135.01" stroke="black"/>
<line x1="990" y1="134.51" x2="1004" y2="134.51" stroke="black"/>
<line x1="1003.5" y1="135.01" x2="1003.5" y2="16.0104" stroke="black"/>
<line x1="1003.56" y1="16.1855" x2="997.536" y2="1.19692" stroke="black"/>
<g clip-path="url(#clip24_1_396)">
<path d="M990 17H1004V135H990V17Z" fill="#E9EAB5"/>
<path d="M997 0L1003.93 17.25H990.072L997 0Z" fill="#E9EAB5"/>
<path d="M997.435 0.199036L990.482 16.2198" stroke="black"/>
<path d="M990.5 16.0104V135.01" stroke="black"/>
<path d="M990 134.51H1004" stroke="black"/>
<path d="M1003.5 135.01V16.0104" stroke="black"/>
<path d="M1003.56 16.1855L997.536 1.19693" stroke="black"/>
</g>
<g clip-path="url(#clip25_1_396)">
<path d="M990 17H1004V135H990V17Z" fill="#E9EAB5"/>
<path d="M997 0L1003.93 17.25H990.072L997 0Z" fill="#E9EAB5"/>
<path d="M997.435 0.199036L990.482 16.2198" stroke="black"/>
<path d="M990.5 16.0104V135.01" stroke="black"/>
<path d="M990 134.51H1004" stroke="black"/>
<path d="M1003.5 135.01V16.0104" stroke="black"/>
<path d="M1003.56 16.1855L997.536 1.19693" stroke="black"/>
</g>
<g clip-path="url(#clip26_1_396)">
<path d="M1035 17H1049V135H1035V17Z" fill="#E9EAB5"/>
<path d="M1042 0L1048.93 17.25H1035.07L1042 0Z" fill="#E9EAB5"/>
<path d="M1042.43 0.199036L1035.48 16.2198" stroke="black"/>
<path d="M1035.5 16.0104V135.01" stroke="black"/>
<path d="M1035 134.51H1049" stroke="black"/>
<path d="M1048.5 135.01V16.0104" stroke="black"/>
<path d="M1048.56 16.1855L1042.54 1.19693" stroke="black"/>
</g>
<g clip-path="url(#clip27_1_396)">
<path d="M1081 17H1095V135H1081V17Z" fill="#E9EAB5"/>
<path d="M1088 0L1094.93 17.25H1081.07L1088 0Z" fill="#E9EAB5"/>
<path d="M1088.43 0.199036L1081.48 16.2198" stroke="black"/>
<path d="M1081.5 16.0104V135.01" stroke="black"/>
<path d="M1081 134.51H1095" stroke="black"/>
<path d="M1094.5 135.01V16.0104" stroke="black"/>
<path d="M1094.56 16.1855L1088.54 1.19693" stroke="black"/>
</g>
<path d="M1127 18H1141V136H1127V18Z" fill="#E9EAB5"/>
<path d="M1134 1L1140.93 18.25H1127.07L1134 1Z" fill="#E9EAB5"/>
<line x1="1134.43" y1="1.19904" x2="1127.48" y2="17.2198" stroke="black"/>
<line x1="1127.5" y1="17.0104" x2="1127.5" y2="136.01" stroke="black"/>
<line x1="1127" y1="135.51" x2="1141" y2="135.51" stroke="black"/>
<line x1="1140.5" y1="136.01" x2="1140.5" y2="17.0104" stroke="black"/>
<line x1="1140.56" y1="17.1855" x2="1134.54" y2="2.19692" stroke="black"/>
<g clip-path="url(#clip28_1_396)">
<path d="M1127 18H1141V136H1127V18Z" fill="#E9EAB5"/>
<path d="M1134 1L1140.93 18.25H1127.07L1134 1Z" fill="#E9EAB5"/>
<path d="M1134.43 1.19904L1127.48 17.2198" stroke="black"/>
<path d="M1127.5 17.0104V136.01" stroke="black"/>
<path d="M1127 135.51H1141" stroke="black"/>
<path d="M1140.5 136.01V17.0104" stroke="black"/>
<path d="M1140.56 17.1855L1134.54 2.19693" stroke="black"/>
</g>
<g clip-path="url(#clip29_1_396)">
<path d="M1127 18H1141V136H1127V18Z" fill="#E9EAB5"/>
<path d="M1134 1L1140.93 18.25H1127.07L1134 1Z" fill="#E9EAB5"/>
<path d="M1134.43 1.19904L1127.48 17.2198" stroke="black"/>
<path d="M1127.5 17.0104V136.01" stroke="black"/>
<path d="M1127 135.51H1141" stroke="black"/>
<path d="M1140.5 136.01V17.0104" stroke="black"/>
<path d="M1140.56 17.1855L1134.54 2.19693" stroke="black"/>
</g>
<g clip-path="url(#clip30_1_396)">
<path d="M1172 18H1186V136H1172V18Z" fill="#E9EAB5"/>
<path d="M1179 1L1185.93 18.25H1172.07L1179 1Z" fill="#E9EAB5"/>
<path d="M1179.43 1.19904L1172.48 17.2198" stroke="black"/>
<path d="M1172.5 17.0104V136.01" stroke="black"/>
<path d="M1172 135.51H1186" stroke="black"/>
<path d="M1185.5 136.01V17.0104" stroke="black"/>
<path d="M1185.56 17.1855L1179.54 2.19693" stroke="black"/>
</g>
<path d="M168 18H182V136H168V18Z" fill="#E9EAB5"/>
<path d="M175 1L181.928 18.25H168.072L175 1Z" fill="#E9EAB5"/>
<line x1="175.435" y1="1.19904" x2="168.482" y2="17.2198" stroke="black"/>
<line x1="168.5" y1="17.0104" x2="168.5" y2="136.01" stroke="black"/>
<line x1="168" y1="135.51" x2="182" y2="135.51" stroke="black"/>
<line x1="181.5" y1="136.01" x2="181.5" y2="17.0104" stroke="black"/>
<line x1="181.564" y1="17.1855" x2="175.536" y2="2.19692" stroke="black"/>
<g clip-path="url(#clip31_1_396)">
<path d="M168 18H182V136H168V18Z" fill="#E9EAB5"/>
<path d="M175 1L181.928 18.25H168.072L175 1Z" fill="#E9EAB5"/>
<path d="M175.435 1.19904L168.482 17.2198" stroke="black"/>
<path d="M168.5 17.0104V136.01" stroke="black"/>
<path d="M168 135.51H182" stroke="black"/>
<path d="M181.5 136.01V17.0104" stroke="black"/>
<path d="M181.564 17.1855L175.536 2.19693" stroke="black"/>
</g>
<g clip-path="url(#clip32_1_396)">
<path d="M168 18H182V136H168V18Z" fill="#E9EAB5"/>
<path d="M175 1L181.928 18.25H168.072L175 1Z" fill="#E9EAB5"/>
<path d="M175.435 1.19904L168.482 17.2198" stroke="black"/>
<path d="M168.5 17.0104V136.01" stroke="black"/>
<path d="M168 135.51H182" stroke="black"/>
<path d="M181.5 136.01V17.0104" stroke="black"/>
<path d="M181.564 17.1855L175.536 2.19693" stroke="black"/>
</g>
<g clip-path="url(#clip33_1_396)">
<path d="M213 18H227V136H213V18Z" fill="#E9EAB5"/>
<path d="M220 1L226.928 18.25H213.072L220 1Z" fill="#E9EAB5"/>
<path d="M220.435 1.19904L213.482 17.2198" stroke="black"/>
<path d="M213.5 17.0104V136.01" stroke="black"/>
<path d="M213 135.51H227" stroke="black"/>
<path d="M226.5 136.01V17.0104" stroke="black"/>
<path d="M226.564 17.1855L220.536 2.19693" stroke="black"/>
</g>
<g clip-path="url(#clip34_1_396)">
<path d="M259 18H273V136H259V18Z" fill="#E9EAB5"/>
<path d="M266 1L272.928 18.25H259.072L266 1Z" fill="#E9EAB5"/>
<path d="M266.435 1.19904L259.482 17.2198" stroke="black"/>
<path d="M259.5 17.0104V136.01" stroke="black"/>
<path d="M259 135.51H273" stroke="black"/>
<path d="M272.5 136.01V17.0104" stroke="black"/>
<path d="M272.565 17.1855L266.536 2.19693" stroke="black"/>
</g>
<defs>
<clipPath id="clip0_1_396">
<rect width="15" height="136" fill="white" transform="translate(31 1)"/>
</clipPath>
<clipPath id="clip1_1_396">
<rect width="15" height="136" fill="white" transform="translate(31 1)"/>
</clipPath>
<clipPath id="clip2_1_396">
<rect width="15" height="136" fill="white" transform="translate(76 1)"/>
</clipPath>
<clipPath id="clip3_1_396">
<rect width="15" height="136" fill="white" transform="translate(122 1)"/>
</clipPath>
<clipPath id="clip4_1_396">
<rect width="15" height="136" fill="white" transform="translate(305 1)"/>
</clipPath>
<clipPath id="clip5_1_396">
<rect width="15" height="136" fill="white" transform="translate(305 1)"/>
</clipPath>
<clipPath id="clip6_1_396">
<rect width="15" height="136" fill="white" transform="translate(350 1)"/>
</clipPath>
<clipPath id="clip7_1_396">
<rect width="15" height="136" fill="white" transform="translate(396 1)"/>
</clipPath>
<clipPath id="clip8_1_396">
<rect width="15" height="136" fill="white" transform="translate(442 1)"/>
</clipPath>
<clipPath id="clip9_1_396">
<rect width="15" height="136" fill="white" transform="translate(442 1)"/>
</clipPath>
<clipPath id="clip10_1_396">
<rect width="15" height="136" fill="white" transform="translate(487 1)"/>
</clipPath>
<clipPath id="clip11_1_396">
<rect width="15" height="136" fill="white" transform="translate(533 1)"/>
</clipPath>
<clipPath id="clip12_1_396">
<rect width="15" height="136" fill="white" transform="translate(579 1)"/>
</clipPath>
<clipPath id="clip13_1_396">
<rect width="15" height="136" fill="white" transform="translate(579 1)"/>
</clipPath>
<clipPath id="clip14_1_396">
<rect width="15" height="136" fill="white" transform="translate(624 1)"/>
</clipPath>
<clipPath id="clip15_1_396">
<rect width="15" height="136" fill="white" transform="translate(670 1)"/>
</clipPath>
<clipPath id="clip16_1_396">
<rect width="15" height="136" fill="white" transform="translate(716 1)"/>
</clipPath>
<clipPath id="clip17_1_396">
<rect width="15" height="136" fill="white" transform="translate(716 1)"/>
</clipPath>
<clipPath id="clip18_1_396">
<rect width="15" height="136" fill="white" transform="translate(761 1)"/>
</clipPath>
<clipPath id="clip19_1_396">
<rect width="15" height="136" fill="white" transform="translate(807 1)"/>
</clipPath>
<clipPath id="clip20_1_396">
<rect width="15" height="136" fill="white" transform="translate(853 1)"/>
</clipPath>
<clipPath id="clip21_1_396">
<rect width="15" height="136" fill="white" transform="translate(853 1)"/>
</clipPath>
<clipPath id="clip22_1_396">
<rect width="15" height="136" fill="white" transform="translate(898 1)"/>
</clipPath>
<clipPath id="clip23_1_396">
<rect width="15" height="136" fill="white" transform="translate(944 1)"/>
</clipPath>
<clipPath id="clip24_1_396">
<rect width="15" height="136" fill="white" transform="translate(990)"/>
</clipPath>
<clipPath id="clip25_1_396">
<rect width="15" height="136" fill="white" transform="translate(990)"/>
</clipPath>
<clipPath id="clip26_1_396">
<rect width="15" height="136" fill="white" transform="translate(1035)"/>
</clipPath>
<clipPath id="clip27_1_396">
<rect width="15" height="136" fill="white" transform="translate(1081)"/>
</clipPath>
<clipPath id="clip28_1_396">
<rect width="15" height="136" fill="white" transform="translate(1127 1)"/>
</clipPath>
<clipPath id="clip29_1_396">
<rect width="15" height="136" fill="white" transform="translate(1127 1)"/>
</clipPath>
<clipPath id="clip30_1_396">
<rect width="15" height="136" fill="white" transform="translate(1172 1)"/>
</clipPath>
<clipPath id="clip31_1_396">
<rect width="15" height="136" fill="white" transform="translate(168 1)"/>
</clipPath>
<clipPath id="clip32_1_396">
<rect width="15" height="136" fill="white" transform="translate(168 1)"/>
</clipPath>
<clipPath id="clip33_1_396">
<rect width="15" height="136" fill="white" transform="translate(213 1)"/>
</clipPath>
<clipPath id="clip34_1_396">
<rect width="15" height="136" fill="white" transform="translate(259 1)"/>
</clipPath>
</defs>
</svg>
